<?xml version="1.0" encoding="UTF-8"?>
<svg width="436px" height="97px" viewBox="0 0 436 97" version="1.1" xmlns="http://www.w3.org/2000/svg" xmlns:xlink="http://www.w3.org/1999/xlink">
    <!-- Generator: Sketch 59 (86127) - https://sketch.com -->
    <title>画板</title>
    <desc>Created with Sketch.</desc>
    <g id="画板" stroke="none" stroke-width="1" fill="none" fill-rule="evenodd">
        <g id="Frame-1" transform="translate(13.000000, 0.000000)" fill="#FFFFFF" fill-rule="nonzero">
            <path d="M48.781,34.105 L39.016,43.92 C38.527,42.553 37.86,41.332 37.014,40.258 C36.167,39.151 35.207,38.223 34.133,37.475 C33.091,36.726 31.952,36.156 30.715,35.766 C29.478,35.375 28.208,35.18 26.906,35.18 C25.083,35.18 23.358,35.554 21.73,36.303 C20.135,37.051 18.736,38.109 17.531,39.477 C16.359,40.811 15.432,42.406 14.748,44.262 C14.064,46.117 13.723,48.168 13.723,50.414 C13.723,52.237 14.064,53.946 14.748,55.541 C15.432,57.136 16.359,58.536 17.531,59.74 C18.736,60.945 20.135,61.889 21.73,62.572 C23.358,63.256 25.083,63.598 26.906,63.598 C28.208,63.598 29.462,63.419 30.666,63.061 C31.87,62.702 32.993,62.198 34.035,61.547 C35.109,60.863 36.053,60.049 36.867,59.105 C37.714,58.129 38.397,57.055 38.918,55.883 L48.684,65.697 C47.447,67.455 46.014,69.034 44.387,70.434 C42.792,71.833 41.05,73.021 39.162,73.998 C37.307,74.975 35.337,75.707 33.254,76.195 C31.203,76.716 29.087,76.977 26.906,76.977 C23.228,76.977 19.761,76.293 16.506,74.926 C13.283,73.526 10.451,71.622 8.01,69.213 C5.601,66.804 3.697,63.988 2.297,60.766 C0.897,57.543 0.197,54.092 0.197,50.414 C0.197,46.41 0.897,42.667 2.297,39.184 C3.697,35.701 5.601,32.673 8.01,30.102 C10.451,27.497 13.283,25.447 16.506,23.949 C19.761,22.452 23.228,21.703 26.906,21.703 C29.087,21.703 31.219,21.98 33.303,22.533 C35.419,23.087 37.421,23.9 39.309,24.975 C41.229,26.016 42.987,27.302 44.582,28.832 C46.21,30.362 47.609,32.12 48.781,34.105 Z M105.08,49.389 C105.08,53.295 104.38,56.941 102.98,60.326 C101.581,63.679 99.676,66.592 97.268,69.066 C94.859,71.508 92.027,73.445 88.771,74.877 C85.549,76.277 82.082,76.977 78.371,76.977 C74.693,76.977 71.226,76.277 67.971,74.877 C64.748,73.445 61.916,71.508 59.475,69.066 C57.066,66.592 55.161,63.679 53.762,60.326 C52.362,56.941 51.662,53.295 51.662,49.389 C51.662,45.417 52.362,41.739 53.762,38.354 C55.161,34.968 57.066,32.055 59.475,29.613 C61.916,27.139 64.748,25.202 67.971,23.803 C71.226,22.403 74.693,21.703 78.371,21.703 C82.082,21.703 85.549,22.37 88.771,23.705 C92.027,25.007 94.859,26.879 97.268,29.32 C99.676,31.729 101.581,34.643 102.98,38.061 C104.38,41.446 105.08,45.222 105.08,49.389 Z M91.652,49.389 C91.652,47.24 91.294,45.303 90.578,43.578 C89.895,41.82 88.951,40.323 87.746,39.086 C86.542,37.816 85.126,36.856 83.498,36.205 C81.903,35.521 80.194,35.18 78.371,35.18 C76.548,35.18 74.823,35.521 73.195,36.205 C71.6,36.856 70.201,37.816 68.996,39.086 C67.824,40.323 66.896,41.82 66.213,43.578 C65.529,45.303 65.188,47.24 65.188,49.389 C65.188,51.407 65.529,53.279 66.213,55.004 C66.896,56.729 67.824,58.227 68.996,59.496 C70.201,60.766 71.6,61.775 73.195,62.523 C74.823,63.24 76.548,63.598 78.371,63.598 C80.194,63.598 81.903,63.256 83.498,62.572 C85.126,61.889 86.542,60.928 87.746,59.691 C88.951,58.454 89.895,56.957 90.578,55.199 C91.294,53.441 91.652,51.505 91.652,49.389 Z M162.99,76 L159.768,76 L154.592,68.822 C153.322,69.962 151.971,71.036 150.539,72.045 C149.139,73.021 147.658,73.884 146.096,74.633 C144.533,75.349 142.922,75.919 141.262,76.342 C139.634,76.765 137.974,76.977 136.281,76.977 C132.603,76.977 129.136,76.293 125.881,74.926 C122.658,73.526 119.826,71.605 117.385,69.164 C114.976,66.69 113.072,63.777 111.672,60.424 C110.272,57.038 109.572,53.36 109.572,49.389 C109.572,45.45 110.272,41.788 111.672,38.402 C113.072,35.017 114.976,32.087 117.385,29.613 C119.826,27.139 122.658,25.202 125.881,23.803 C129.136,22.403 132.603,21.703 136.281,21.703 C137.453,21.703 138.658,21.801 139.895,21.996 C141.164,22.191 142.385,22.517 143.557,22.973 C144.761,23.396 145.884,23.965 146.926,24.682 C147.967,25.398 148.846,26.277 149.562,27.318 L149.562,2.904 L162.99,2.904 L162.99,76 Z M149.562,49.389 C149.562,47.566 149.204,45.808 148.488,44.115 C147.805,42.39 146.861,40.876 145.656,39.574 C144.452,38.24 143.036,37.182 141.408,36.4 C139.813,35.587 138.104,35.18 136.281,35.18 C134.458,35.18 132.733,35.505 131.105,36.156 C129.51,36.807 128.111,37.751 126.906,38.988 C125.734,40.193 124.807,41.674 124.123,43.432 C123.439,45.189 123.098,47.175 123.098,49.389 C123.098,51.309 123.439,53.132 124.123,54.857 C124.807,56.583 125.734,58.096 126.906,59.398 C128.111,60.701 129.51,61.726 131.105,62.475 C132.733,63.223 134.458,63.598 136.281,63.598 C138.104,63.598 139.813,63.207 141.408,62.426 C143.036,61.612 144.452,60.554 145.656,59.252 C146.861,57.917 147.805,56.404 148.488,54.711 C149.204,52.986 149.562,51.212 149.562,49.389 Z M193.996,63.207 C194.517,63.37 195.038,63.484 195.559,63.549 C196.079,63.581 196.6,63.598 197.121,63.598 C198.423,63.598 199.676,63.419 200.881,63.061 C202.085,62.702 203.208,62.198 204.25,61.547 C205.324,60.863 206.268,60.049 207.082,59.105 C207.928,58.129 208.612,57.055 209.133,55.883 L218.898,65.697 C217.661,67.455 216.229,69.034 214.602,70.434 C213.007,71.833 211.265,73.021 209.377,73.998 C207.521,74.975 205.552,75.707 203.469,76.195 C201.418,76.716 199.302,76.977 197.121,76.977 C193.443,76.977 189.976,76.293 186.721,74.926 C183.498,73.559 180.666,71.654 178.225,69.213 C175.816,66.771 173.911,63.874 172.512,60.521 C171.112,57.136 170.412,53.425 170.412,49.389 C170.412,45.255 171.112,41.479 172.512,38.061 C173.911,34.643 175.816,31.729 178.225,29.32 C180.666,26.911 183.498,25.04 186.721,23.705 C189.976,22.37 193.443,21.703 197.121,21.703 C199.302,21.703 201.434,21.964 203.518,22.484 C205.601,23.005 207.57,23.754 209.426,24.73 C211.314,25.707 213.072,26.911 214.699,28.344 C216.327,29.743 217.759,31.322 218.996,33.08 L193.996,63.207 Z M200.832,35.717 C200.214,35.489 199.595,35.342 198.977,35.277 C198.391,35.212 197.772,35.18 197.121,35.18 C195.298,35.18 193.573,35.521 191.945,36.205 C190.35,36.856 188.951,37.8 187.746,39.037 C186.574,40.274 185.646,41.771 184.963,43.529 C184.279,45.255 183.938,47.208 183.938,49.389 C183.938,49.877 183.954,50.43 183.986,51.049 C184.051,51.667 184.133,52.302 184.23,52.953 C184.361,53.572 184.507,54.174 184.67,54.76 C184.833,55.346 185.044,55.867 185.305,56.322 L200.832,35.717 Z M254.445,76 L223.977,76 L223.977,62.719 L254.445,62.719 C255.357,62.719 256.138,62.393 256.789,61.742 C257.44,61.091 257.766,60.31 257.766,59.398 C257.766,58.454 257.44,57.836 256.789,57.543 C256.138,57.25 255.357,57.104 254.445,57.104 L240.578,57.104 C238.267,57.104 236.102,56.664 234.084,55.785 C232.066,54.906 230.308,53.718 228.811,52.221 C227.313,50.691 226.125,48.917 225.246,46.898 C224.4,44.88 223.977,42.715 223.977,40.404 C223.977,38.093 224.4,35.928 225.246,33.91 C226.125,31.892 227.313,30.134 228.811,28.637 C230.308,27.139 232.066,25.967 234.084,25.121 C236.102,24.242 238.267,23.803 240.578,23.803 L267.58,23.803 L267.58,37.084 L240.578,37.084 C239.667,37.084 238.885,37.41 238.234,38.061 C237.583,38.712 237.258,39.493 237.258,40.404 C237.258,41.348 237.583,42.162 238.234,42.846 C238.885,43.497 239.667,43.822 240.578,43.822 L254.445,43.822 C256.724,43.822 258.872,44.213 260.891,44.994 C262.909,45.743 264.667,46.801 266.164,48.168 C267.661,49.535 268.85,51.179 269.729,53.1 C270.607,55.02 271.047,57.12 271.047,59.398 C271.047,61.71 270.607,63.874 269.729,65.893 C268.85,67.878 267.661,69.636 266.164,71.166 C264.667,72.663 262.909,73.852 260.891,74.73 C258.872,75.577 256.724,76 254.445,76 Z M293.898,9.496 C293.898,10.733 293.654,11.889 293.166,12.963 C292.71,14.037 292.076,14.981 291.262,15.795 C290.448,16.576 289.488,17.211 288.381,17.699 C287.307,18.155 286.151,18.383 284.914,18.383 C283.677,18.383 282.505,18.155 281.398,17.699 C280.324,17.211 279.38,16.576 278.566,15.795 C277.785,14.981 277.15,14.037 276.662,12.963 C276.206,11.889 275.979,10.733 275.979,9.496 C275.979,8.292 276.206,7.152 276.662,6.078 C277.15,4.971 277.785,4.027 278.566,3.246 C279.38,2.432 280.324,1.798 281.398,1.342 C282.505,0.854 283.677,0.609 284.914,0.609 C286.151,0.609 287.307,0.854 288.381,1.342 C289.488,1.798 290.448,2.432 291.262,3.246 C292.076,4.027 292.71,4.971 293.166,6.078 C293.654,7.152 293.898,8.292 293.898,9.496 Z M291.604,76 L278.176,76 L278.176,23.705 L291.604,23.705 L291.604,76 Z M339.016,49.389 C339.016,47.566 338.658,45.808 337.941,44.115 C337.258,42.39 336.314,40.876 335.109,39.574 C333.905,38.24 332.489,37.182 330.861,36.4 C329.266,35.587 327.557,35.18 325.734,35.18 C323.911,35.18 322.186,35.489 320.559,36.107 C318.964,36.726 317.564,37.637 316.359,38.842 C315.188,40.046 314.26,41.544 313.576,43.334 C312.893,45.092 312.551,47.11 312.551,49.389 C312.551,51.57 312.893,53.539 313.576,55.297 C314.26,57.022 315.188,58.503 316.359,59.74 C317.564,60.977 318.964,61.938 320.559,62.621 C322.186,63.272 323.911,63.598 325.734,63.598 C327.557,63.598 329.266,63.207 330.861,62.426 C332.489,61.612 333.905,60.554 335.109,59.252 C336.314,57.917 337.258,56.404 337.941,54.711 C338.658,52.986 339.016,51.212 339.016,49.389 Z M352.443,69.408 C352.443,73.087 351.743,76.537 350.344,79.76 C348.944,82.982 347.023,85.798 344.582,88.207 C342.173,90.616 339.341,92.52 336.086,93.92 C332.863,95.32 329.413,96.02 325.734,96.02 L319.045,95.922 L319.045,82.592 L325.637,82.689 C327.72,82.689 329.494,82.413 330.959,81.859 C332.424,81.339 333.661,80.606 334.67,79.662 C335.679,78.751 336.477,77.693 337.062,76.488 C337.681,75.284 338.169,74.014 338.527,72.68 C338.007,73.526 337.258,74.226 336.281,74.779 C335.305,75.3 334.214,75.723 333.01,76.049 C331.838,76.407 330.601,76.651 329.299,76.781 C328.029,76.911 326.841,76.977 325.734,76.977 C322.056,76.977 318.589,76.342 315.334,75.072 C312.111,73.803 309.279,71.996 306.838,69.652 C304.429,67.276 302.525,64.379 301.125,60.961 C299.725,57.543 299.025,53.686 299.025,49.389 C299.025,45.45 299.725,41.788 301.125,38.402 C302.525,35.017 304.429,32.087 306.838,29.613 C309.279,27.139 312.111,25.202 315.334,23.803 C318.589,22.403 322.056,21.703 325.734,21.703 C327.427,21.703 329.104,21.915 330.764,22.338 C332.424,22.761 334.035,23.347 335.598,24.096 C337.16,24.844 338.641,25.723 340.041,26.732 C341.473,27.742 342.808,28.832 344.045,30.004 L349.221,23.803 L352.443,23.803 L352.443,69.408 Z M375.979,76 L362.648,76 L362.648,23.705 L365.871,23.705 L370.266,28.783 C372.414,26.83 374.839,25.333 377.541,24.291 C380.275,23.217 383.124,22.68 386.086,22.68 C389.276,22.68 392.287,23.298 395.119,24.535 C397.951,25.74 400.425,27.416 402.541,29.564 C404.657,31.68 406.317,34.171 407.521,37.035 C408.758,39.867 409.377,42.895 409.377,46.117 L409.377,76 L396.047,76 L396.047,46.117 C396.047,44.75 395.786,43.464 395.266,42.26 C394.745,41.023 394.029,39.949 393.117,39.037 C392.206,38.126 391.148,37.41 389.943,36.889 C388.739,36.368 387.453,36.107 386.086,36.107 C384.686,36.107 383.368,36.368 382.131,36.889 C380.894,37.41 379.82,38.126 378.908,39.037 C377.997,39.949 377.281,41.023 376.76,42.26 C376.239,43.464 375.979,44.75 375.979,46.117 L375.979,76 Z" id="形状"></path>
        </g>
    </g>
</svg>